# xmcd
#
# Track frame offsets: 
#        150
#        12758
#        25408
#        38376
#        54301
#        69131
#        82297
#        95014
#        107142
#        120936
#        132235
#        145760
#        158334
#        171513
#        183049
#        195073
#
# Disc length: 2738 seconds
#
# Revision: 0
# Processed by: cddbd v1.5.2PL0 Copyright (c) Steve Scherf et al.
# Submitted via: ExactAudioCopyFreeDBPlugin 1.0
#
DISCID=bc0ab010
DTITLE=Various Artist - Bayerische Märsche Folge 2
DYEAR=1900
DGENRE=
TTITLE0=Musikkapelle der Landespolizei München (1929) - Tritt gefasst 
TTITLE0=Marsch
TTITLE1=Musikkapelle der Landespolizei München (1929) - Parademarsch d
TTITLE1=er Kgl. Bayer. Grenadier-Garde
TTITLE2=Blasorchester Paul Woitschach (1938) - M. A. N. Marsch
TTITLE3=Musikkapelle des 7. Bayer. Pionierbatallion (1928) - Marsch de
TTITLE3=r Pappenheimer Reiterschwadron
TTITLE4=Musikkapelle des 7. Bayer. Pionierbatallion (1929) - Prinz-Kar
TTITLE4=l-Marsch
TTITLE5=Musikkapelle der Landespolizei München (1929) - Belgrad-Marsch
TTITLE6=Musikkapelle des Königl. Leibinfanterieregiments Nr.1 (1915) /
TTITLE6=Aufziehen der Residenzwache
TTITLE7=Blaskapelle Willi Krug (1927) - Graf Dürckheim-Marsch
TTITLE8=Musikkapelle des Königl. Bayer. Leibinfanterieregiments Nr.1 (
TTITLE8=1912) - Hoch Wittelsbach-Marsch
TTITLE9=Musikkapelle des 19. Bayer. Infanterieregiments 1. BatallionMü
TTITLE9=nchen (1927) - Unter Bayerns Rautenbanner
TTITLE10=Musikkapelle des Königl. Bayer. Infanterieregiments Nr. 14 "v
TTITLE10=Hartmann" (1912) - Oberst Blaul-Marsch
TTITLE11=Musikkapelle des 19. Bayer. Infanterieregiments 1. BatallionM
TTITLE11=ünchen (1927) - FC Bayern Marsch
TTITLE12=Musikkapelle des Königl. Bayer. Ulanen-Regiments "König", Nr.
TTITLE12=2  (1906) - Bayerischer Königs-Ulanen-Marsch
TTITLE13=Musikkapelle des Königl. Bayer. Leibinfanterieregiments Nr.1 
TTITLE13=(1912) - General Grauvogl-Marsch
TTITLE14=Musikkapelle des 1. Königl. Bayer. Leibinfanterieregiments "K
TTITLE14=önig" (1905) - Taxis-Marsch
TTITLE15=Musikkapelle des 19. Bayer. Infanterieregiments 1. BatallionM
TTITLE15=ünchen (1935) - Fleury-Marsch
EXTD=
EXTT0=
EXTT1=
EXTT2=
EXTT3=
EXTT4=
EXTT5=
EXTT6=
EXTT7=
EXTT8=
EXTT9=
EXTT10=
EXTT11=
EXTT12=
EXTT13=
EXTT14=
EXTT15=
PLAYORDER=
